PathFileType	4	(X/Y/Z)	C:/ViconProjects/foot_20160225/trc/2_test01_dynamic.trc
DataRate	CameraRate	NumFrames	NumMarkers	Units	OrigDataRate	OrigDataStartFrame	OrigNumFrames
120.000000	120.000000	8	39	mm	120.000000	1	682
Frame#	Time	RCUNE			RNAVI			RMT3			LCUNE			LNAVI			LMT3			ROHEL			RIHEL			LOHEL			LIHEL			RSHAN			LSHAN			RTHI			LTHI			ROWR			RELB			RBSH			LOWR			LELB			LBSH			RHEAD			THEAD			FHEAD			T10			RTOE			RHEL			RMT1			RMT5			RANK			RKNE			LTOE			LHEL			LMT1			LMT5			LANK			LKNE			VBWT			RFWT			LFWT			
		X0	Y0	Z0	X1	Y1	Z1	X2	Y2	Z2	X3	Y3	Z3	X4	Y4	Z4	X5	Y5	Z5	X6	Y6	Z6	X7	Y7	Z7	X8	Y8	Z8	X9	Y9	Z9	X10	Y10	Z10	X11	Y11	Z11	X12	Y12	Z12	X13	Y13	Z13	X14	Y14	Z14	X15	Y15	Z15	X16	Y16	Z16	X17	Y17	Z17	X18	Y18	Z18	X19	Y19	Z19	X20	Y20	Z20	X21	Y21	Z21	X22	Y22	Z22	X23	Y23	Z23	X24	Y24	Z24	X25	Y25	Z25	X26	Y26	Z26	X27	Y27	Z27	X28	Y28	Z28	X29	Y29	Z29	X30	Y30	Z30	X31	Y31	Z31	X32	Y32	Z32	X33	Y33	Z33	X34	Y34	Z34	X35	Y35	Z35	X36	Y36	Z36	X37	Y37	Z37	X38	Y38	Z38	
1	0.008333	2460.573486	330.671814	43.892010	2446.528320	230.676590	58.924549	2356.063721	304.689484	46.323460	2458.278320	-56.674641	41.282631	2434.200928	41.267311	52.695660	2352.146973	-43.650410	46.759769	2536.602783	301.842529	52.620129	2522.799072	228.068939	49.652729	2532.069336	-26.530319	53.545979	2519.482666	44.785839	49.947979	2429.580078	239.090912	236.986938	2411.189941	30.729639	331.011566	2329.169678	249.626083	576.902954	2312.103760	14.779540	627.879211	2308.942139	387.102386	867.033142	2424.804199	412.947296	1099.997681	2421.959717	323.255310	1430.291748	2309.244873	-129.941177	868.776184	2418.949219	-166.902435	1098.787109	2428.194580	-85.310707	1429.927612	2456.586670	194.040176	1662.393555	2375.565430	118.275841	1732.849121	2305.523926	28.645781	1652.493408	2571.368408	63.124908	1277.410278	2305.394287	285.300598	42.651550	2565.097412	257.070160	50.850281	2349.770752	267.516388	52.550282	2394.249023	348.411285	42.529610	2503.172119	320.328217	79.297813	2415.367432	301.584930	472.184479	2304.646484	-21.029890	40.511051	2556.565674	14.381320	52.388950	2340.258301	-5.180170	49.974300	2396.778564	-74.036407	45.051071	2495.690918	-45.067749	73.648399	2418.326660	-36.623039	474.336670	2568.785645	127.473267	951.243713	2344.596191	274.667450	961.700317	2342.787109	-15.603530	962.581848
2	0.016667	2460.653564	330.760437	43.877338	2446.427979	230.795181	58.931862	2356.047607	304.716522	46.314610	2458.261963	-56.609680	41.241009	2434.176270	41.286499	52.616261	2352.100586	-43.649948	46.702518	2536.623047	301.815887	52.635559	2522.781494	228.111023	49.643688	2532.069824	-26.525730	53.517471	2519.496826	44.789742	49.989262	2429.976563	239.216721	236.879181	2410.958252	30.757090	331.117981	2329.099365	249.700806	576.923950	2312.158936	14.786430	627.860229	2308.534912	386.815613	867.029358	2424.561035	412.884918	1100.136597	2421.806641	323.215332	1430.367188	2309.234131	-130.081192	868.819580	2419.139160	-166.937759	1098.807373	2428.569824	-85.388771	1429.942139	2456.649170	193.949326	1662.399414	2375.855469	118.046341	1732.879028	2305.607178	28.537001	1652.499878	2571.445068	63.171902	1277.447998	2305.409912	285.306793	42.635391	2565.106445	257.084473	50.827759	2349.741211	267.535004	52.552189	2394.273682	348.364899	42.600349	2503.160645	320.346222	79.328590	2415.395264	301.583679	472.183228	2304.584473	-20.998310	40.443310	2556.587402	14.381290	52.407169	2340.266846	-5.209030	50.064430	2396.842041	-73.990479	44.974751	2495.687256	-45.216190	73.710716	2418.354004	-36.657459	474.393158	2568.878906	127.534302	951.251282	2344.525391	274.755676	961.664734	2342.805664	-15.586080	962.571472
3	0.025000	2460.685791	330.715240	43.952629	2446.496094	230.735245	58.920929	2356.056396	304.736572	46.324509	2458.308105	-56.661701	41.270401	2434.254883	41.302479	52.692001	2352.117432	-43.698250	46.804340	2536.631592	301.829956	52.631969	2522.805664	228.169968	49.676991	2532.082520	-26.512819	53.533569	2519.505371	44.787922	50.009430	2429.658936	239.082886	237.007736	2411.006592	30.773649	331.117340	2329.221191	249.818192	577.033569	2312.341797	14.712210	627.940613	2308.271729	386.453369	867.195496	2424.381104	412.885559	1100.234375	2421.626709	323.135529	1430.429810	2309.211914	-130.182510	868.937805	2419.383789	-166.990814	1098.773193	2428.925293	-85.378609	1429.966187	2456.759277	193.890442	1662.384521	2376.063477	117.803703	1732.884888	2305.671143	28.413750	1652.534912	2571.532959	63.271011	1277.485840	2305.396973	285.326385	42.691509	2565.116699	257.055908	50.814400	2349.755127	267.502136	52.554008	2394.296631	348.410431	42.639931	2503.184082	320.413361	79.384590	2415.382324	301.599304	472.197876	2304.723633	-21.071011	40.510262	2556.573242	14.390130	52.386539	2340.291504	-5.174270	50.043930	2396.842773	-73.970238	45.124229	2495.675293	-45.202770	73.705757	2418.423828	-36.675251	474.473389	2568.933105	127.613327	951.260803	2344.371338	274.782043	961.828125	2342.801025	-15.582540	962.616272
4	0.033333	2460.774902	330.681671	43.999710	2446.517822	230.719635	59.003738	2356.055420	304.716217	46.353909	2458.293945	-56.637291	41.247841	2434.388428	41.377022	52.728569	2352.171631	-43.662411	46.772301	2536.626953	301.848816	52.636219	2522.780762	228.135574	49.638340	2532.127686	-26.563959	53.613400	2519.505371	44.773750	50.018791	2429.803223	239.131378	236.950760	2411.358398	30.731819	331.041046	2329.252686	249.800461	576.933960	2312.405762	14.726300	627.917419	2307.879395	386.037201	867.074829	2424.080078	412.818848	1100.192627	2421.562500	323.112976	1430.537354	2309.249756	-130.209320	868.891907	2419.578857	-167.056000	1098.670410	2429.215576	-85.477539	1430.052368	2454.833008	191.851944	1662.093018	2376.234375	117.622299	1732.879395	2305.848145	28.247749	1652.516113	2571.577881	63.332581	1277.500610	2305.440186	285.319794	42.705700	2565.099854	257.131653	50.849960	2349.732422	267.560364	52.555050	2394.300781	348.382172	42.668041	2503.218018	320.358917	79.379341	2415.419434	301.646027	472.249939	2304.779541	-21.064381	40.527210	2556.582275	14.354080	52.398109	2340.313721	-5.179950	50.038361	2396.833496	-73.943443	45.073212	2495.677246	-45.213650	73.689941	2418.507324	-36.598129	474.457886	2568.966309	127.618500	951.268066	2344.566895	274.725586	961.775757	2342.969238	-15.536420	962.647034
5	0.041667	2460.716553	330.737488	43.958721	2446.438477	230.731155	58.856201	2356.024658	304.735687	46.372311	2458.300781	-56.704189	41.302448	2434.308838	41.348518	52.684219	2352.152100	-43.627319	46.706341	2536.658936	301.854584	52.672180	2522.758057	228.148148	49.567451	2531.939697	-27.437080	53.177639	2519.461670	44.799992	49.917259	2429.997559	239.287766	236.847137	2411.100342	30.780710	331.106415	2329.210205	249.795273	576.884460	2312.461914	14.698060	627.908997	2307.707031	385.847992	867.324219	2423.947998	412.855255	1100.298584	2421.477783	323.100281	1430.614990	2309.332031	-130.271637	868.848633	2419.635254	-167.097672	1098.653076	2429.506836	-85.303299	1429.917603	2454.789795	191.738998	1662.059204	2376.273926	117.297508	1732.897827	2305.945557	28.124220	1652.474976	2571.626221	63.435600	1277.545288	2305.333496	285.329285	42.653400	2565.117676	257.103119	50.838840	2349.710449	267.504517	52.544559	2394.191895	348.387817	42.496590	2503.196289	320.423920	79.381332	2415.714600	301.830444	472.178223	2304.533936	-20.597191	40.552601	2556.593018	14.394590	52.399601	2340.158447	-4.916890	49.956039	2396.818115	-73.964233	45.020649	2495.663086	-45.065121	73.618217	2418.480957	-36.623409	474.415100	2568.996826	127.727463	951.293884	2344.592041	274.690155	961.600098	2342.989502	-15.484130	962.702271
6	0.050000	2460.692383	330.769806	44.002151	2446.534424	230.764816	58.925270	2356.044678	304.731293	46.374989	2458.297363	-56.678631	41.274830	2434.356934	41.229950	52.704620	2352.171143	-43.661221	46.773499	2536.637939	301.846985	52.653172	2522.760742	228.157806	49.611568	2532.089600	-26.532801	53.575199	2519.469727	44.810070	49.943661	2430.023926	239.237793	236.872070	2411.065918	30.720320	331.151154	2329.277588	249.799652	576.968994	2312.448975	14.743320	627.871033	2307.185059	385.364380	867.603943	2423.811523	412.852051	1100.383179	2421.387207	323.121155	1430.717651	2309.379883	-130.643417	868.840515	2419.831543	-167.199692	1098.669434	2429.702637	-85.590622	1430.027222	2454.822021	191.691956	1662.139526	2376.614502	117.299477	1732.960205	2306.133545	27.916321	1652.637085	2571.704590	63.519531	1277.571289	2305.407227	285.326691	42.679001	2565.136475	257.051239	50.820301	2349.781738	267.508575	52.562401	2394.229004	348.398987	42.652691	2503.199951	320.392456	79.413132	2415.669922	301.791656	472.175446	2304.614746	-20.654779	40.607109	2556.582764	14.378230	52.403511	2340.211914	-4.899760	49.963501	2396.828369	-73.937462	45.090710	2495.665771	-45.103271	73.616859	2418.612061	-36.556561	474.465118	2569.061523	127.759323	951.314941	2344.610840	274.746857	961.726929	2343.208740	-15.458650	962.672546
7	0.058333	2460.636963	330.631500	43.959389	2446.502930	230.769791	59.051262	2356.013672	304.787445	46.386879	2458.227539	-56.575970	41.215290	2434.196045	41.249229	52.748661	2352.175293	-43.659790	46.760891	2536.606445	301.834564	52.626949	2522.757080	228.185669	49.591549	2532.105469	-26.531580	53.553120	2519.427979	44.772911	49.902409	2429.637695	239.070679	236.917236	2411.282471	30.717369	331.060150	2329.277344	249.783661	576.956970	2312.582764	14.649190	627.928955	2307.000000	385.063507	867.676514	2423.657227	412.853485	1100.437500	2421.314209	323.088409	1430.767456	2309.635010	-130.892303	868.717773	2420.001465	-167.122177	1098.684448	2429.813477	-85.582733	1430.061646	2454.811523	191.639221	1662.123901	2376.627197	117.082840	1732.984253	2306.290283	27.821220	1652.660645	2571.797119	63.612591	1277.609375	2305.411621	285.321533	42.699120	2565.118408	257.111603	50.814789	2349.740234	267.538788	52.540680	2394.195068	348.379486	42.604141	2503.176758	320.346680	79.372398	2415.617432	301.779785	472.167023	2304.735107	-21.068501	40.527851	2556.591553	14.386210	52.400188	2340.326172	-5.157150	49.983231	2396.829834	-73.929359	45.034611	2495.667236	-45.085369	73.618347	2418.661377	-36.628239	474.468231	2569.068604	127.835411	951.325806	2344.529541	274.715729	961.688171	2343.361328	-15.473350	962.676880
8	0.066667	2460.719482	330.788818	43.962120	2446.407471	230.808167	58.941158	2355.960693	304.781982	46.356892	2458.305420	-56.698929	41.283001	2434.137207	41.300480	52.699860	2352.165039	-43.629379	46.751431	2536.623779	301.837158	52.618622	2522.677246	228.224503	49.516361	2532.071289	-26.514410	53.534649	2519.431885	44.797379	49.907001	2429.988525	239.258163	236.809937	2411.210449	30.689600	331.082977	2329.281250	249.825607	576.943848	2312.589844	14.638430	627.932617	2306.549561	384.652924	867.787659	2423.496338	412.852966	1100.466675	2421.277832	323.090485	1430.809814	2310.042480	-131.012070	868.623413	2420.240234	-167.199387	1098.707886	2429.917725	-85.660767	1430.040283	2454.800049	191.542465	1662.109009	2376.661377	117.090179	1733.004761	2306.374756	27.773500	1652.654541	2571.832764	63.648621	1277.648315	2305.389893	285.314941	42.692860	2565.129395	257.105194	50.839081	2349.709717	267.560791	52.549431	2394.203857	348.400269	42.604279	2503.203125	320.396942	79.421417	2415.446777	301.681580	472.199310	2304.637695	-21.016451	40.454948	2556.588623	14.372870	52.391918	2340.310303	-5.182080	49.993050	2396.827637	-74.003571	45.016281	2495.704834	-45.138290	73.668991	2418.703613	-36.542950	474.410736	2569.141357	127.887611	951.379333	2344.575195	274.734436	961.600647	2343.489746	-15.447100	962.671753
